<svg width="25" height="25" viewBox="0 0 25 25" fill="none" xmlns="http://www.w3.org/2000/svg">
<path d="M8.33333 3.125H5.20833C4.6558 3.125 4.12589 3.34449 3.73519 3.73519C3.34449 4.12589 3.125 4.6558 3.125 5.20833V8.33333M21.875 8.33333V5.20833C21.875 4.6558 21.6555 4.12589 21.2648 3.73519C20.8741 3.34449 20.3442 3.125 19.7917 3.125H16.6667M16.6667 21.875H19.7917C20.3442 21.875 20.8741 21.6555 21.2648 21.2648C21.6555 20.8741 21.875 20.3442 21.875 19.7917V16.6667M3.125 16.6667V19.7917C3.125 20.3442 3.34449 20.8741 3.73519 21.2648C4.12589 21.6555 4.6558 21.875 5.20833 21.875H8.33333" stroke="#1E1E1E" stroke-width="4" stroke-linecap="round" stroke-linejoin="round"/>
</svg>
